<?xml version="1.0" encoding="UTF-8"?>
<svg id="Layer_2" data-name="Layer 2" xmlns="http://www.w3.org/2000/svg" viewBox="0 0 931.86 1014.71">
  <defs>
    <style>
      .cls-1 {
        fill: none;
      }

      .cls-2 {
        fill: #fff;
      }
    </style>
  </defs>
  <g id="Layer_1-2" data-name="Layer 1">
    <g>
      <path class="cls-1" d="M689.86,184.6c-31.65,0-57.38,25.74-57.38,57.4s25.74,57.39,57.38,57.39,57.4-25.74,57.4-57.39-25.75-57.4-57.4-57.4Z"/>
      <path class="cls-1" d="M315.36,188.95c-72.1,0-130.76,58.65-130.76,130.75s58.66,130.75,130.76,130.75c27.42,0,53.85-8.71,75.82-24.35l25.6-24.07c18.88-23.23,29.33-52.22,29.33-82.33,0-72.1-58.65-130.75-130.74-130.75Z"/>
      <path class="cls-2" d="M689.86,0c-68.94,0-131.07,29.12-175.19,75.54C460.31,31.07,390.9,4.35,315.36,4.35,157.72,4.35,26.72,120.62,3.62,271.91c-2.38,15.59-3.62,31.55-3.62,47.79,0,6.48.32,12.88.65,19.29.56,10.82,1.49,21.55,2.97,32.15,14.43,103.23,71.99,195.93,159.83,269.08l-128.81,121.12v253.38l293.19-275.68c97.14,41.37,210.54,65.84,333.05,67.92l17.06.15v-184.6c-69.95,0-137-9.56-197.97-26.51l30.55-28.72c14.56-11.47,28.22-24.22,40.71-38.28l61.49-57.82c24.26,8.19,50.15,12.83,77.14,12.83,133.45,0,242-108.56,242-241.99S823.31,0,689.86,0ZM416.77,402.03l-25.6,24.07c-21.97,15.64-48.4,24.35-75.82,24.35-72.1,0-130.76-58.65-130.76-130.75s58.66-130.75,130.76-130.75,130.74,58.65,130.74,130.75c0,30.11-10.45,59.1-29.33,82.33ZM689.86,299.39c-31.65,0-57.38-25.74-57.38-57.39s25.74-57.4,57.38-57.4,57.4,25.74,57.4,57.4-25.75,57.39-57.4,57.39Z"/>
    </g>
  </g>
</svg>