<?xml version="1.0" encoding="UTF-8"?>
<svg id="Layer_2" data-name="Layer 2" xmlns="http://www.w3.org/2000/svg" viewBox="0 0 1086.06 1013.57">
  <g id="Layer_1-2" data-name="Layer 1">
    <g>
      <path d="M413.93,678.21c-22.47,0-40.75,17.98-40.75,40.08s18.28,40.09,40.75,40.09c1.02,0,2.04-.08,3.12-.16l1.36-.1c20.64-2.24,36.27-19.36,36.27-39.83,0-22.1-18.28-40.08-40.75-40.08Z"/>
      <path d="M427.8,617.68c10.48,0,19-8.23,19-18.35s-8.52-18.36-19-18.36-19,8.23-19,18.36,8.52,18.35,19,18.35Z"/>
      <path d="M450.92,303.99c44.2,0,78.2-29.46,78.2-74.23s-33.43-75.36-77.62-75.36-76.49,32.3-76.49,74.23c0,44.19,28.33,75.36,75.92,75.36Z"/>
      <path d="M1031.06,0H0v1013.57h1086.06V0h-55ZM720.81,374.95h35.36v43.13h38.85v-43.13h35.36v116.95s-35.3,0-35.3,0l-1.01-39.29h-37.89v39.29h-35.36v-116.95ZM599.25,409.78l1.32-34.83h102.77s0,34.83,0,34.83h-30.81v82.12h-40.2v-82.12h-33.08ZM269.45,489.84h-77.62V222.12h-87.83v-50.99c47.6-1.7,90.08-19.27,98.02-69.13h67.42v387.84ZM447.53,93.78c103.12,0,160.91,65.16,160.91,196.61,0,124.09-41.36,207.94-155.25,207.94-81.02,0-127.48-43.06-135.98-101.42h74.79c6.23,23.23,24.37,42.5,58.92,42.5,24.36,0,42.5-7.36,56.1-24.37,15.3-19.26,23.79-50.99,24.37-91.22h-1.13c-20.4,23.79-47.6,42.49-90.09,42.49-78.76,0-138.81-53.83-138.81-136.55s62.9-135.98,146.18-135.98ZM529.33,812.78l-22.04-32.46-.82.72c-17.21,15.19-36.25,25.88-56.59,31.78-9.8,2.84-19.88,4.51-29.96,4.98l-.78.04c-1.69.08-3.45.16-5.21.16-10.72,0-21.32-1.74-31.51-5.17-40.39-13.6-67.53-51.32-67.53-93.87,0-26.44,10.33-51.32,29.1-70.05,4.65-4.64,9.82-8.86,15.37-12.54l.73-.48-.41-.77c-.53-.98-.99-1.99-1.44-2.96l-.4-.86c-4.85-10.37-7.31-21.34-7.31-32.61,0-42.62,34.67-77.3,77.29-77.3s77.3,34.68,77.3,77.3c0,11.27-2.46,22.25-7.32,32.61-2.81,6-6.24,11.49-10.2,16.32l-1.09,1.29,21.57,31.76.65-1.71c3.71-9.68,6.72-19.96,8.95-30.54.95-4.49,1.77-9.2,2.44-13.99l.25-1.77h57.01l-.25,2.28c-.52,4.69-1.09,8.98-1.77,13.14-5.01,30.89-15.54,60.58-30.47,85.84l-.31.52,53.2,78.34h-68.44ZM609.74,911.57c5.1-142.78,81.03-260.07,139.95-320.69v-1.13h-200.26v-66.29h284.12v63.46c-69.69,70.82-134.29,183.57-139.95,324.66h-83.86ZM857.16,730.96h-30.81v82.12h-40.2s0-82.12,0-82.12h-33.08l1.32-34.83h102.78v34.83ZM982.06,813.08h-35.3l-1.01-39.29h-37.89v39.29h-35.36v-116.95s35.36,0,35.36,0v43.13h38.85v-43.13h35.36v116.95Z"/>
    </g>
  </g>
</svg>