<?xml version="1.0" encoding="UTF-8"?>
<svg id="Layer_2" data-name="Layer 2" xmlns="http://www.w3.org/2000/svg" viewBox="0 0 878.06 817.79">
  <g id="Layer_1-2" data-name="Layer 1" fill="#EAEBDC">
    <g>
      <path d="M0,77.34v50.99h87.83v267.72h77.62V8.22h-67.42C90.08,58.08,47.6,75.64,0,77.34Z"/>
      <path d="M336.16,272.53c42.5,0,69.69-18.7,90.09-42.49h1.13c-.57,40.23-9.07,71.96-24.37,91.22-13.6,17-31.73,24.37-56.1,24.37-34.56,0-52.69-19.27-58.92-42.5h-74.79c8.5,58.36,54.96,101.42,135.98,101.42,113.89,0,155.25-83.85,155.25-207.94C504.44,65.16,446.65,0,343.53,0c-83.29,0-146.18,56.1-146.18,135.98s60.06,136.55,138.81,136.55ZM347.5,60.63c44.19,0,77.62,31.16,77.62,75.36s-33.99,74.23-78.2,74.23c-47.59,0-75.92-31.16-75.92-75.36s31.72-74.23,76.49-74.23Z"/>
      <polygon points="568.54 398.12 568.54 316 599.35 316 599.35 281.16 496.58 281.16 495.25 316 528.34 316 528.34 398.12 568.54 398.12"/>
      <polygon points="652.17 358.83 690.06 358.83 691.07 398.12 726.38 398.12 726.37 281.16 691.02 281.16 691.02 324.3 652.17 324.3 652.17 281.16 616.81 281.16 616.81 398.12 652.17 398.12 652.17 358.83"/>
      <path d="M729.55,429.67h-284.12v66.29h200.26v1.13c-58.92,60.62-134.85,177.91-139.95,320.69h83.86c5.66-141.08,70.26-253.84,139.95-324.66v-63.46Z"/>
      <path d="M440.88,640.13c14.93-25.26,25.47-54.95,30.47-85.84.67-4.15,1.25-8.45,1.77-13.14l.25-2.28h-57.01l-.25,1.77c-.68,4.8-1.5,9.5-2.44,14-2.23,10.58-5.24,20.86-8.95,30.54l-.65,1.71-21.57-31.76,1.09-1.29c3.96-4.83,7.4-10.32,10.2-16.32,4.86-10.37,7.32-21.34,7.32-32.61,0-42.62-34.67-77.3-77.3-77.3s-77.29,34.68-77.29,77.3c0,11.27,2.46,22.24,7.31,32.61l.4.86c.45.97.92,1.98,1.44,2.96l.41.77-.73.48c-5.55,3.68-10.72,7.9-15.37,12.54-18.76,18.74-29.1,43.61-29.1,70.05,0,42.55,27.14,80.28,67.53,93.87,10.19,3.43,20.79,5.17,31.51,5.17,1.76,0,3.51-.08,5.21-.16l.78-.04c10.08-.47,20.16-2.15,29.96-4.98,20.34-5.9,39.38-16.59,56.59-31.78l.82-.72,22.04,32.46h68.44l-53.2-78.34.31-.52ZM304.81,505.55c0-10.12,8.52-18.36,19-18.36s19,8.23,19,18.36-8.52,18.35-19,18.35-19-8.23-19-18.35ZM350.68,624.51c0,20.47-15.62,37.6-36.27,39.83l-1.36.1c-1.08.08-2.1.16-3.12.16-22.47,0-40.75-17.98-40.75-40.09s18.28-40.08,40.75-40.08,40.75,17.98,40.75,40.08Z"/>
      <polygon points="649.06 637.18 682.14 637.18 682.14 719.3 722.34 719.3 722.34 637.18 753.16 637.18 753.16 602.35 650.38 602.35 649.06 637.18"/>
      <polygon points="842.7 602.35 842.7 645.48 803.86 645.48 803.86 602.35 768.5 602.35 768.5 719.3 803.86 719.3 803.86 680.01 841.74 680.01 842.76 719.3 878.06 719.3 878.06 602.35 842.7 602.35"/>
    </g>
  </g>
</svg>