<?xml version="1.0" encoding="UTF-8"?>
<svg id="Layer_2" data-name="Layer 2" xmlns="http://www.w3.org/2000/svg" viewBox="0 0 1507.81 729.72">
  <g id="Layer_1-2" data-name="Layer 1">
    <g>
      <polygon points="598.87 150.09 648.98 150.09 648.98 270.71 702.42 270.71 702.42 150.09 752.52 150.09 752.52 102.01 598.87 102.01 598.87 150.09"/>
      <polygon points="871.74 102.01 871.74 163.75 825.9 163.75 825.9 102.01 772.45 102.01 772.45 270.71 825.9 270.71 825.9 211.37 925.18 211.37 925.18 102.01 871.74 102.01"/>
      <polygon points="1076.49 506.73 1126.75 506.73 1126.75 627.78 1180.36 627.78 1180.36 506.73 1230.62 506.73 1230.62 458.5 1076.49 458.5 1076.49 506.73"/>
      <polygon points="1350.2 458.5 1350.2 520.44 1304.22 520.44 1304.22 458.5 1250.61 458.5 1250.61 627.78 1304.22 627.78 1304.22 568.21 1350.2 568.21 1350.2 627.78 1403.81 627.78 1403.81 458.5 1350.2 458.5"/>
      <path d="M703.21,633.59c-11.8,0-23.47-1.91-34.69-5.69-44.48-14.97-74.36-56.51-74.36-103.37,0-29.11,11.38-56.5,32.04-77.13,5.11-5.1,10.81-9.75,16.92-13.81l2.57-1.71-1.46-2.72c-.57-1.06-1.08-2.15-1.58-3.25l-.43-.93c-5.32-11.36-8.01-23.37-8.01-35.7,0-46.65,37.95-84.61,84.6-84.61s84.61,37.95,84.61,84.61c0,12.33-2.69,24.34-8.01,35.69-3.07,6.57-6.83,12.58-11.17,17.87l-2.33,2.77,27.72,40.81,2.32-6.05c4.22-11,7.64-22.67,10.17-34.69,1.08-5.14,2.01-10.47,2.78-15.89h59.53c-.58,5.24-1.23,10.06-1.97,14.65-5.58,34.47-17.33,67.56-33.97,95.72l-1.09,1.85,58.2,85.69h-71.38l-25.57-37.66-2.88,2.54c-19.1,16.86-40.21,28.72-62.75,35.25-10.84,3.14-22,4.99-33.15,5.52l-.66.03c-1.98.09-3.96.19-5.96.19ZM703.21,476.42c-26.53,0-48.12,21.25-48.12,47.38s21.59,47.38,48.12,47.38c1.26,0,2.51-.1,3.76-.19l1.45-.11c24.44-2.64,42.92-22.89,42.92-47.09,0-26.12-21.59-47.38-48.12-47.38ZM718.81,367.08c-13.05,0-23.67,10.3-23.67,22.95s10.62,22.95,23.67,22.95,23.67-10.29,23.67-22.95-10.62-22.95-23.67-22.95Z"/>
      <path d="M104,171.13v50.99h87.83v267.72h77.62V102h-67.42c-7.94,49.86-50.43,67.42-98.02,69.13Z"/>
      <path d="M440.16,366.32c42.5,0,69.69-18.7,90.09-42.49h1.13c-.57,40.23-9.07,71.96-24.37,91.22-13.6,17-31.73,24.37-56.1,24.37-34.56,0-52.69-19.27-58.92-42.5h-74.79c8.5,58.36,54.96,101.42,135.98,101.42,113.89,0,155.25-83.85,155.25-207.94,0-131.45-57.8-196.61-160.91-196.61-83.29,0-146.18,56.1-146.18,135.98s60.06,136.55,138.81,136.55ZM451.5,154.41c44.19,0,77.62,31.16,77.62,75.36s-33.99,74.23-78.2,74.23c-47.59,0-75.92-31.16-75.92-75.36s31.72-74.23,76.49-74.23Z"/>
      <path d="M1150.29,239.66h-296.15v66.29h212.29v1.13c-58.92,60.62-134.85,177.91-139.95,320.69h83.86c5.66-141.08,70.26-253.84,139.95-324.66v-63.46Z"/>
      <path d="M1452.81,53v623.72H55V53h1397.81M1507.81,0H0v729.72h1507.81V0h0Z"/>
    </g>
  </g>
</svg>