<?xml version="1.0" encoding="UTF-8"?>
<svg id="Layer_2" data-name="Layer 2" xmlns="http://www.w3.org/2000/svg" viewBox="0 0 1299.81 539.81">
  <g id="Layer_1-2" data-name="Layer 1" fill="#111010">
    <g>
      <polygon points="494.87 56.31 544.98 56.31 544.98 176.93 598.42 176.93 598.42 56.31 648.52 56.31 648.52 8.23 494.87 8.23 494.87 56.31"/>
      <polygon points="767.74 8.23 767.74 69.97 721.9 69.97 721.9 8.23 668.45 8.23 668.45 176.93 721.9 176.93 721.9 117.58 821.18 117.58 821.18 8.23 767.74 8.23"/>
      <polygon points="972.49 412.95 1022.75 412.95 1022.75 534 1076.36 534 1076.36 412.95 1126.62 412.95 1126.62 364.72 972.49 364.72 972.49 412.95"/>
      <polygon points="1246.2 364.72 1246.2 426.66 1200.22 426.66 1200.22 364.72 1146.61 364.72 1146.61 534 1200.22 534 1200.22 474.43 1246.2 474.43 1246.2 534 1299.81 534 1299.81 364.72 1246.2 364.72"/>
      <path d="M599.21,539.81c-11.8,0-23.47-1.91-34.69-5.69-44.48-14.97-74.36-56.51-74.36-103.37,0-29.11,11.38-56.5,32.04-77.13,5.11-5.1,10.81-9.75,16.92-13.81l2.57-1.71-1.46-2.72c-.57-1.06-1.08-2.15-1.58-3.25l-.43-.93c-5.32-11.36-8.01-23.37-8.01-35.7,0-46.65,37.95-84.61,84.6-84.61s84.61,37.95,84.61,84.61c0,12.33-2.69,24.34-8.01,35.69-3.07,6.57-6.83,12.58-11.17,17.87l-2.33,2.77,27.72,40.81,2.32-6.05c4.22-11,7.64-22.67,10.17-34.69,1.08-5.14,2.01-10.47,2.78-15.89h59.53c-.58,5.24-1.23,10.06-1.97,14.65-5.58,34.47-17.33,67.56-33.97,95.72l-1.09,1.85,58.2,85.69h-71.38l-25.57-37.66-2.88,2.54c-19.1,16.86-40.21,28.72-62.75,35.25-10.84,3.14-22,4.99-33.15,5.52l-.66.03c-1.98.09-3.96.19-5.96.19ZM599.21,382.64c-26.53,0-48.12,21.25-48.12,47.38s21.59,47.38,48.12,47.38c1.26,0,2.51-.1,3.76-.19l1.45-.11c24.44-2.64,42.92-22.89,42.92-47.09,0-26.12-21.59-47.38-48.12-47.38ZM614.81,273.3c-13.05,0-23.67,10.3-23.67,22.95s10.62,22.95,23.67,22.95,23.67-10.29,23.67-22.95-10.62-22.95-23.67-22.95Z"/>
      <path d="M0,77.34v50.99h87.83v267.72h77.62V8.22h-67.42C90.08,58.08,47.6,75.64,0,77.34Z"/>
      <path d="M336.16,272.53c42.5,0,69.69-18.7,90.09-42.49h1.13c-.57,40.23-9.07,71.96-24.37,91.22-13.6,17-31.73,24.37-56.1,24.37-34.56,0-52.69-19.27-58.92-42.5h-74.79c8.5,58.36,54.96,101.42,135.98,101.42,113.89,0,155.25-83.85,155.25-207.94C504.44,65.16,446.65,0,343.53,0c-83.29,0-146.18,56.1-146.18,135.98s60.06,136.55,138.81,136.55ZM347.5,60.63c44.19,0,77.62,31.16,77.62,75.36s-33.99,74.23-78.2,74.23c-47.59,0-75.92-31.16-75.92-75.36s31.72-74.23,76.49-74.23Z"/>
      <path d="M1046.29,145.88h-296.15v66.29h212.29v1.13c-58.92,60.62-134.85,177.91-139.95,320.69h83.86c5.66-141.08,70.26-253.84,139.95-324.66v-63.46Z"/>
    </g>
  </g>
</svg>