<?xml version="1.0" encoding="UTF-8"?>
<svg id="Layer_2" data-name="Layer 2" xmlns="http://www.w3.org/2000/svg" viewBox="0 0 1086.06 1013.57">
  <g id="Layer_1-2" data-name="Layer 1" fill="#EAEBDC">
    <g>
      <path d="M104,171.13v50.99h87.83v267.72h77.62V102h-67.42c-7.94,49.86-50.43,67.42-98.02,69.13Z"/>
      <path d="M440.16,366.32c42.5,0,69.69-18.7,90.09-42.49h1.13c-.57,40.23-9.07,71.96-24.37,91.22-13.6,17-31.73,24.37-56.1,24.37-34.56,0-52.69-19.27-58.92-42.5h-74.79c8.5,58.36,54.96,101.42,135.98,101.42,113.89,0,155.25-83.85,155.25-207.94,0-131.45-57.8-196.61-160.91-196.61-83.29,0-146.18,56.1-146.18,135.98s60.06,136.55,138.81,136.55ZM451.5,154.41c44.19,0,77.62,31.16,77.62,75.36s-33.99,74.23-78.2,74.23c-47.59,0-75.92-31.16-75.92-75.36s31.72-74.23,76.49-74.23Z"/>
      <polygon points="672.54 491.9 672.54 409.78 703.35 409.78 703.35 374.95 600.58 374.95 599.25 409.78 632.34 409.78 632.34 491.9 672.54 491.9"/>
      <polygon points="756.17 452.61 794.06 452.61 795.07 491.9 830.38 491.9 830.37 374.95 795.02 374.95 795.02 418.08 756.17 418.08 756.17 374.95 720.81 374.95 720.81 491.9 756.17 491.9 756.17 452.61"/>
      <path d="M833.55,523.45h-284.12v66.29h200.26v1.13c-58.92,60.62-134.85,177.91-139.95,320.69h83.86c5.66-141.08,70.26-253.84,139.95-324.66v-63.46Z"/>
      <path d="M544.88,733.92c14.93-25.26,25.47-54.95,30.47-85.84.67-4.15,1.25-8.45,1.77-13.14l.25-2.28h-57.01l-.25,1.77c-.68,4.8-1.5,9.5-2.44,14-2.23,10.58-5.24,20.86-8.95,30.54l-.65,1.71-21.57-31.76,1.09-1.29c3.96-4.83,7.4-10.32,10.2-16.32,4.86-10.37,7.32-21.34,7.32-32.61,0-42.62-34.67-77.3-77.3-77.3s-77.29,34.68-77.29,77.3c0,11.27,2.46,22.24,7.31,32.61l.4.86c.45.97.92,1.98,1.44,2.96l.41.77-.73.48c-5.55,3.68-10.72,7.9-15.37,12.54-18.76,18.74-29.1,43.61-29.1,70.05,0,42.55,27.14,80.28,67.53,93.87,10.19,3.43,20.79,5.17,31.51,5.17,1.76,0,3.51-.08,5.21-.16l.78-.04c10.08-.47,20.16-2.15,29.96-4.98,20.34-5.9,39.38-16.59,56.59-31.78l.82-.72,22.04,32.46h68.44l-53.2-78.34.31-.52ZM408.81,599.33c0-10.12,8.52-18.36,19-18.36s19,8.23,19,18.36-8.52,18.35-19,18.35-19-8.23-19-18.35ZM454.68,718.3c0,20.47-15.62,37.6-36.27,39.83l-1.36.1c-1.08.08-2.1.16-3.12.16-22.47,0-40.75-17.98-40.75-40.09s18.28-40.08,40.75-40.08,40.75,17.98,40.75,40.08Z"/>
      <polygon points="753.06 730.96 786.14 730.96 786.14 813.08 826.34 813.08 826.34 730.96 857.16 730.96 857.16 696.13 754.38 696.13 753.06 730.96"/>
      <polygon points="946.7 696.13 946.7 739.26 907.86 739.26 907.86 696.13 872.5 696.13 872.5 813.08 907.86 813.08 907.86 773.8 945.74 773.8 946.76 813.08 982.06 813.08 982.06 696.13 946.7 696.13"/>
      <path d="M1031.06,53v907.57H55V53h976.06M1086.06,0H0v1013.57h1086.06V0h0Z"/>
    </g>
  </g>
</svg>