<?xml version="1.0" encoding="UTF-8"?>
<svg id="Layer_2" data-name="Layer 2" xmlns="http://www.w3.org/2000/svg" viewBox="0 0 1507.81 729.72">
  <defs>
    <style>
      .cls-1 {
        fill: #fff;
      }
    </style>
  </defs>
  <g id="Layer_1-2" data-name="Layer 1">
    <g>
      <path class="cls-1" d="M451.5,154.41c-44.77,0-76.49,32.3-76.49,74.23,0,44.19,28.33,75.36,75.92,75.36,44.2,0,78.2-29.46,78.2-74.23s-33.43-75.36-77.62-75.36Z"/>
      <path class="cls-1" d="M718.81,412.97c13.06,0,23.67-10.29,23.67-22.95s-10.62-22.95-23.67-22.95-23.67,10.3-23.67,22.95,10.62,22.95,23.67,22.95Z"/>
      <path class="cls-1" d="M703.21,476.42c-26.53,0-48.12,21.25-48.12,47.38s21.59,47.38,48.12,47.38c1.26,0,2.51-.1,3.76-.19l1.45-.11c24.44-2.64,42.92-22.89,42.92-47.09,0-26.12-21.59-47.38-48.12-47.38Z"/>
      <path class="cls-1" d="M1452.81,0H0v729.72h1507.81V0h-55ZM772.45,102.01h53.44v61.74h45.84v-61.74h53.44v109.35h-99.28v59.34h-53.44V102.01ZM598.87,102.01h153.65v48.08h-50.11v120.62h-53.44v-120.62h-50.11v-48.08ZM269.45,489.84h-77.62V222.12h-87.82v-50.99c47.6-1.7,90.08-19.27,98.02-69.13h67.42v387.84ZM453.19,498.33c-81.02,0-127.48-43.06-135.98-101.42h74.79c6.23,23.23,24.37,42.5,58.92,42.5,24.36,0,42.5-7.36,56.1-24.37,15.3-19.26,23.79-50.99,24.37-91.22h-1.13c-20.4,23.79-47.6,42.49-90.09,42.49-78.76,0-138.81-53.83-138.81-136.55s62.9-135.98,146.18-135.98c103.12,0,160.91,65.16,160.91,196.61,0,124.09-41.36,207.94-155.25,207.94ZM834.19,627.72l-25.57-37.66-2.88,2.54c-19.1,16.86-40.21,28.72-62.75,35.25-10.84,3.14-22,4.99-33.15,5.52l-.66.03c-1.98.09-3.96.19-5.96.19-11.8,0-23.47-1.91-34.69-5.69-44.48-14.97-74.36-56.51-74.36-103.37,0-29.11,11.38-56.5,32.04-77.13,5.11-5.1,10.81-9.75,16.92-13.81l2.57-1.71-1.46-2.72c-.57-1.06-1.08-2.15-1.58-3.25l-.43-.93c-5.32-11.36-8.01-23.37-8.01-35.7,0-46.65,37.95-84.61,84.6-84.61s84.61,37.95,84.61,84.61c0,12.33-2.69,24.34-8.01,35.69-3.07,6.57-6.83,12.58-11.17,17.87l-2.33,2.77,27.71,40.81,2.32-6.05c4.22-11,7.64-22.67,10.17-34.69,1.08-5.14,2.01-10.47,2.78-15.89h59.53c-.58,5.24-1.23,10.06-1.97,14.65-5.58,34.47-17.33,67.56-33.97,95.72l-1.09,1.85,58.2,85.69h-71.38ZM926.49,627.78c5.1-142.78,81.03-260.07,139.95-320.69v-1.13h-212.29v-66.29h296.15v63.46c-69.69,70.82-134.29,183.58-139.95,324.66h-83.86ZM1230.62,506.73h-50.26v121.05h-53.61v-121.05h-50.26v-48.23h154.14v48.23ZM1403.81,627.78h-53.61v-59.57h-45.98v59.57h-53.61v-169.28h53.61v61.94h45.98v-61.94h53.61v169.28Z"/>
    </g>
  </g>
</svg>